<svg xmlns="http://www.w3.org/2000/svg" viewBox="0 0 56 56"><path fill="#fff" d="M25.3 39.3c-0.4 0.4-0.4 1 0 1.4C25.5 40.9 25.7 41 26 41s0.5-0.1 0.7-0.3l12-12c0.1-0.1 0.2-0.2 0.2-0.3 0.1-0.2 0.1-0.5 0-0.8 -0.1-0.1-0.1-0.2-0.2-0.3L26.7 15.3c-0.4-0.4-1-0.4-1.4 0s-0.4 1 0 1.4L35.6 27H5c-0.6 0-1 0.4-1 1s0.4 1 1 1h30.6L25.3 39.3z"/><path fill="#fff" d="M51 0H14c-0.6 0-1 0.4-1 1v21c0 0.6 0.4 1 1 1s1-0.4 1-1V2h35v52H15V34c0-0.6-0.4-1-1-1s-1 0.4-1 1v21c0 0.6 0.4 1 1 1h37c0.6 0 1-0.4 1-1V1C52 0.4 51.6 0 51 0z"/></svg>
