<svg xmlns="http://www.w3.org/2000/svg" viewBox="0 0 512 512" width="512" height="512"><path fill="#fff" d="M375.2 386.3c-14.6-14.6-29.8-27.8-39.9-36.3 -12.7-10.7-31.2-9.9-42.9 1.9l-15.7 15.7c-0.7 0.7-1.8 0.7-2.5 0L144.5 237.9c-0.3-0.3-0.5-0.8-0.5-1.3 0-0.5 0.2-0.9 0.5-1.3l15.7-15.7c11.8-11.7 12.5-30.2 1.9-42.9 -8.5-10.1-21.7-25.3-36.3-39.9 -14.6-14.6-29.7-27.8-39.9-36.3 -13-10.9-32.2-9.7-43.7 2.6C24.4 122.2 2.7 150.5 0.3 176.6c-2.9 31.8 15.5 71 31.4 98.3 22 37.6 53.4 77.3 90.8 114.6 37.4 37.4 77 68.8 114.6 90.8 25.3 14.8 60.9 31.7 91.3 31.7 2.3 0 4.7-0.1 6.9-0.3 26.1-2.4 54.3-24.1 73.4-41.9 12.4-11.5 13.5-30.7 2.6-43.7C403 416 389.8 400.8 375.2 386.3zM388.4 447.9c-21.8 20.3-42.1 32.7-55.7 34 -10.8 1-35.6-1.2-80.4-27.4 -35.5-20.8-73-50.5-108.6-86.1 -35.6-35.6-65.4-73.1-86.1-108.6 -26.2-44.8-28.4-69.6-27.4-80.4 1.3-13.6 13.6-33.9 34-55.7 0.3-0.4 0.8-0.5 1.3-0.5 0.4 0 0.8 0.1 1.2 0.4 9.7 8.1 24.1 20.7 37.9 34.6 13.9 13.9 26.5 28.3 34.6 38 0.6 0.7 0.6 1.8-0.1 2.4l-15.7 15.7c-6 6-9.3 14-9.3 22.5s3.3 16.5 9.3 22.5l129.6 129.6c12.4 12.4 32.6 12.4 45 0l15.7-15.7c0.7-0.7 1.7-0.7 2.4-0.1 9.7 8.1 24.1 20.8 38 34.6h0c13.8 13.8 26.4 28.3 34.6 37.9C389.2 446.1 389.1 447.2 388.4 447.9z"/><path fill="#fff" d="M473.4 38.4c-25.5-25.3-59.5-39-95.6-38.4 -35.7 0.6-68.9 14.9-93.4 40.4 -24.3 25.2-37.2 58.4-36.5 93.4 0.2 7.7 1 15.4 2.5 22.9 5.2 26.1-3.2 52.9-22.5 71.6l-0.2 0.2c-5.6 5.6-7.3 14-4.2 21.3 3.1 7.4 10.2 12.1 18.2 12.1h137.4c35.1 0 68.3-13.4 93.4-37.8 25.2-24.5 39.3-57.2 39.6-92C512.3 96.7 498.6 63.5 473.4 38.4zM482 131.9c-0.5 55.2-46.7 100.1-103 100.1h-115.3c15.8-23.7 21.8-52.7 16.1-81.2 -1.2-5.8-1.8-11.7-1.9-17.6 -0.6-27 9.4-52.6 28.1-71.9 18.9-19.7 44.6-30.7 72.3-31.2 28-0.4 54.3 10.1 74 29.7C471.7 79 482.2 104.6 482 131.9z"/><path fill="#fff" d="M368.1 102.5c0-8.3-6.7-15-15-15s-15 6.7-15 15v13.4c0 8.3 6.7 15 15 15s15-6.7 15-15V102.5z"/><path fill="#fff" d="M422.1 102.5c0-8.3-6.7-15-15-15s-15 6.7-15 15v13.4c0 8.3 6.7 15 15 15s15-6.7 15-15V102.5z"/><path fill="#fff" d="M380.1 131c-8.3 0-15 6.7-15 15v13.4c0 8.3 6.7 15 15 15s15-6.7 15-15v-13.4C395.1 137.7 388.4 131 380.1 131z"/><path fill="#fff" d="M324.7 131c-8.3 0-15 6.7-15 15v13.4c0 8.3 6.7 15 15 15s15-6.7 15-15v-13.4C339.7 137.7 333 131 324.7 131z"/><path fill="#fff" d="M435.5 131c-8.3 0-15 6.7-15 15v13.4c0 8.3 6.7 15 15 15s15-6.7 15-15v-13.4C450.5 137.7 443.8 131 435.5 131z"/></svg>
