<svg xmlns="http://www.w3.org/2000/svg" viewBox="0 0 512 512"><path d="M510.6 302.8L475.3 181c-5-18.6-21.9-31.7-41.2-31.7H74.7c-3.2 0-6.3 1.5-8.3 4 -0.4 0.5-62 113.2-62 113.2C1.5 271.8 0 277.8 0 283.8 0 303.8 16.2 320 36.2 320h63.1l2.1 9.3c4.4 19.7 21.5 33.4 41.6 33.4 0.1 0 0.2 0 0.4 0L473 352C494.5 352 512 334.5 512 313 512 309.6 511.5 306.2 510.6 302.8zM36.2 298.7c-8.2 0-14.8-6.7-14.8-14.8 0-2.5 0.6-4.9 1.8-7.1l47.3-86.7 24.1 108.6H36.2zM472.7 330.7l-329.8 10.7c-10-0.1-18.5-6.9-20.7-16.7L88 170.7h346.1c9.6 0 18.1 6.5 20.7 16.1l35.3 121.8c0.4 1.4 0.6 2.9 0.6 4.5C490.7 322.8 482.8 330.7 472.7 330.7z" fill="#fff"/><path fill="#fff" d="M393.9 226l-211.5 6.6c-5.9 0.2-10.5 5.1-10.3 11 0.2 5.8 4.9 10.3 10.7 10.3 0.1 0 0.2 0 0.3 0l211.5-6.6c5.9-0.2 10.5-5.1 10.3-11C404.7 230.5 399.9 225.4 393.9 226z"/><path fill="#fff" d="M362.3 270.3l-148.5 4.6c-5.9 0.2-10.5 5.1-10.3 11 0.2 5.8 4.9 10.3 10.7 10.3 0.1 0 0.2 0 0.3 0l148.5-4.6c5.9-0.2 10.5-5.1 10.3-11C373.1 274.8 368.3 269.9 362.3 270.3z"/></svg>
