<svg xmlns="http://www.w3.org/2000/svg" viewBox="0 0 55.9 55.9"><path d="M11.3 54.5c-0.2 0-0.4-0.1-0.6-0.2 -0.3-0.2-0.5-0.6-0.4-1l3.1-18L0.3 22.6c-0.3-0.3-0.4-0.7-0.3-1 0.1-0.4 0.4-0.6 0.8-0.7l18.1-2.6 8.1-16.4c0.2-0.3 0.5-0.6 0.9-0.6l0 0c0.4 0 0.7 0.2 0.9 0.6l8.1 16.4 18.1 2.6c0.4 0.1 0.7 0.3 0.8 0.7 0.1 0.4 0 0.8-0.3 1L42.5 35.4l3.1 18c0.1 0.4-0.1 0.8-0.4 1 -0.3 0.2-0.7 0.3-1.1 0.1l-16.2-8.5 -16.2 8.5C11.6 54.5 11.4 54.5 11.3 54.5zM3.1 22.6l12 11.7c0.2 0.2 0.3 0.6 0.3 0.9L12.6 51.7l14.9-7.8c0.3-0.2 0.6-0.2 0.9 0l14.9 7.8 -2.8-16.5c-0.1-0.3 0.1-0.7 0.3-0.9l12-11.7 -16.6-2.4c-0.3 0-0.6-0.3-0.8-0.5L27.9 4.6l-7.4 15c-0.1 0.3-0.4 0.5-0.8 0.5L3.1 22.6z" fill="#C3C5C4"/></svg>
