<svg xmlns="http://www.w3.org/2000/svg" viewBox="0 0 227 227"><path fill="#fff" d="M217.3 83.3c-1 0-2.1 0.1-3.1 0.4l-11 3L191.5 58.4c-3.5-8.5-13.8-15.4-23-15.4h-7.8V19.4c0-4.1-3.4-7.5-7.5-7.5H73.7c-4.1 0-7.5 3.4-7.5 7.5v23.5h-7.9c-9.2 0-19.5 6.9-23 15.4L23.7 86.7l-10.9-3c-1-0.3-2.1-0.4-3.1-0.4C4.1 83.3 0 87.6 0 93.5v6c0 6.9 5.6 12.5 12.5 12.5h0.8l-1.7 4.1c-3.2 7.9-5.9 21.3-5.9 29.8v56.6c0 6.9 5.6 12.5 12.5 12.5h15c6.9 0 12.5-5.6 12.5-12.5v-13.9H181v13.9c0 6.9 5.6 12.5 12.5 12.5h15c6.9 0 12.5-5.6 12.5-12.5v-56.6c0-8.5-2.6-21.9-5.9-29.8l-1.7-4.1h1c6.9 0 12.5-5.6 12.5-12.5v-6C227 87.6 222.9 83.3 217.3 83.3zM143.6 21.9c0-0.2 0.1-0.3 0.3-0.3h5.8c0.2 0 0.3 0.1 0.3 0.3v20.8c0 0.1-0.1 0.2-0.1 0.2h-6.1c-0.1-0.1-0.1-0.1-0.1-0.2V21.9zM102.2 21.6h6.9c0.2 0 0.4 0.1 0.4 0.3l8.2 20.7 7.6-9.3c0.1-0.1 0.1-0.3 0-0.5l-7.2-10.9c-0.1-0.1 0-0.2 0.1-0.2h6.4c0.2 0 0.4 0.1 0.5 0.3l3.7 6.1c0.1 0.1 0.2 0.1 0.3 0l3.7-6.1c0.1-0.1 0.3-0.3 0.5-0.3h6.4c0.2 0 0.2 0.1 0.1 0.3l-7.3 10.9c-0.1 0.1-0.1 0.4 0 0.5l7.7 9.5c0.1 0.1 0.1 0.1 0 0.2h-6.8c-0.1 0-0.2-0.1-0.2-0.2l-4.2-6.8c-0.1-0.1-0.2-0.1-0.3 0l-4.2 6.8c0 0.1-0.1 0.1-0.2 0.2h-12.8c-0.1-0.1-0.2-0.1-0.2-0.2l-1.4-4.3c-0.1-0.2-0.2-0.3-0.4-0.3h-7.9c-0.2 0-0.3 0.1-0.4 0.3l-1.5 4.3c0 0.1-0.1 0.2-0.2 0.2h-6.2c0-0.1-0.1-0.1 0-0.2l8.4-20.8C101.8 21.8 102 21.6 102.2 21.6zM81.9 42.7v-16.5c0-0.2-0.1-0.3-0.3-0.3h-6.9c-0.2 0-0.3-0.1-0.3-0.3v-3.7c0-0.2 0.1-0.3 0.3-0.3h20.9c0.2 0 0.3 0.1 0.3 0.3v3.7c0 0.2-0.1 0.3-0.3 0.3h-7c-0.2 0-0.3 0.1-0.3 0.3v16.5c0 0.1-0.1 0.2-0.1 0.2h-6.1C81.9 42.9 81.9 42.8 81.9 42.7zM32.5 105.1l17.7-43.1c2.1-5.1 8.3-9.3 13.8-9.3h98.8c5.5 0 11.7 4.2 13.8 9.3l17.7 43.1c2.1 5.1-0.7 9.3-6.2 9.3H38.7C33.2 114.3 30.4 110.2 32.5 105.1zM72.5 160.6c0 2.8-2.2 5-5 5H33.7c-2.7 0-5-2.2-5-5v-16c0-2.7 2.3-5 5-5h33.8c2.8 0 5 2.3 5 5V160.6zM197.8 160.6c0 2.8-2.2 5-5 5h-33.8c-2.7 0-5-2.2-5-5v-16c0-2.7 2.3-5 5-5h33.8c2.8 0 5 2.3 5 5V160.6z"/><path fill="#fff" d="M108.2 33.9c0.2 0 0.2-0.1 0.2-0.3l-2.5-5.8c-0.1-0.2-0.2-0.2-0.2 0l-2.6 5.8c-0.1 0.2 0 0.3 0.2 0.3H108.2z"/></svg>
