<svg xmlns="http://www.w3.org/2000/svg" viewBox="0 0 220 220"><path d="M110 0C49 0 0 49 0 110s49 110 110 110 110-49 110-110S171 0 110 0zM110 210c-55 0-100-45-100-100S55 10 110 10s100 45 100 100S165 210 110 210z"/><path d="M110 20c-50 0-90 41-90 91s41 91 91 91 91-41 91-90S160 20 110 20zM110 198c-48 0-87-39-87-87S62 23 110 23s88 39 88 88S158 198 110 198z"/><polygon points="103 134 93 134 93 145 85 145 85 155 112 155 112 145 103 145 "/><path d="M123 58H83v12h10v34H83v12h10v2h10v-2h20c16 0 29-13 29-29S139 58 123 58zM123 104h-20V70h20c9 0 17 8 17 17S132 104 123 104z"/><rect x="83" y="120" width="54" height="12"/></svg>
