<svg xmlns="http://www.w3.org/2000/svg" viewBox="0 0 463 463"><path d="m362.5 52.6c-2.9-3-6.8-4.6-11-4.6h-0.4v-0.5c0-17.4-14.1-31.5-31.5-31.5-4.5 0-8.9 1-12.9 2.8-7.3-7-16.8-10.8-27.1-10.8-5.1 0-10.1 1-14.9 3-9.6-7.1-21.1-11-33.1-11s-23.6 3.9-33.1 11c-4.8-2-9.8-3-14.9-3-10.2 0-19.8 3.9-27.1 10.8-4.1-1.9-8.4-2.8-12.9-2.8-17.4 0-31.5 14.1-31.5 31.5v0.5h-0.5c-4.2 0-8.1 1.6-11 4.6-2.9 3-4.5 6.9-4.5 11.1 0.7 95 14.7 145 28.2 193.3 12.9 46.3 26.3 94.1 27.7 182.9 0.2 12.8 10.7 23.1 23.5 23.1h112.3c12.7 0 23.3-10.4 23.5-23.1 1.4-88.8 14.7-136.6 27.7-182.9 13.5-48.3 27.4-98.3 28.2-193.3 0-4.2-1.6-8.1-4.5-11zm-251.3 10.6c0.1-0.1 0.2-0.2 0.3-0.2l16 0c4.7 0 8.5 3.8 8.5 8.5 0 13 10.5 23.5 23.5 23.5s23.5-10.5 23.5-23.5c0-4.7 3.8-8.5 8.4-8.5h16c4.7 0 8.5 3.8 8.5 8.5v50.7c-2.3 0.7-4.3 1.6-6.1 2.4-4.4 1.9-7.9 3.4-15.7 3.4-7.8 0-11.3-1.5-15.7-3.4-5-2.2-10.8-4.6-21.6-4.6-10.9 0-16.6 2.4-21.6 4.6-4.4 1.9-7.9 3.4-15.7 3.4-2 0-3.8-0.1-5.5-0.3-1.7-18.8-2.7-39.9-2.9-64.1 0-0.1 0.1-0.3 0.2-0.4zm213.1 189.8c-13.2 47.2-26.8 96-28.2 186.7-0.1 4.6-3.9 8.4-8.5 8.4h-112.3c-4.6 0-8.4-3.8-8.5-8.4-1.4-90.7-15-139.5-28.2-186.7-9.2-33.1-18.1-64.9-23.2-110 1.3 0.1 2.6 0.1 4 0.1 10.9 0 16.6-2.4 21.6-4.6 4.4-1.9 7.9-3.4 15.7-3.4 7.8 0 11.3 1.5 15.7 3.4 5 2.2 10.8 4.6 21.6 4.6 10.9 0 16.6-2.4 21.6-4.6 0.1 0 0.2-0.1 0.2-0.1v85.2c0 13 10.5 23.5 23.5 23.5s23.5-10.5 23.5-23.5v-16c0-4.1-3.4-7.5-7.5-7.5s-7.5 3.4-7.5 7.5v16c0 4.7-3.8 8.5-8.5 8.5s-8.5-3.8-8.5-8.5v-152c0-13-10.6-23.5-23.5-23.5h-16c-12.9 0-23.4 10.5-23.4 23.5 0 4.7-3.8 8.5-8.5 8.5s-8.5-3.8-8.5-8.5c0-13-10.5-23.5-23.5-23.5h-0.5v-0.5c0-9.1 7.4-16.5 16.5-16.5 3.5 0 7 1.2 9.9 3.4 1.6 1.2 3.6 1.7 5.6 1.5 2-0.3 3.8-1.3 5-2.9 4.7-6.3 11.8-9.9 19.6-9.9 4.2 0 8.3 1.1 12.2 3.4 2.8 1.6 6.4 1.3 8.8-0.9 7.5-6.7 17.1-10.5 27.1-10.5s19.6 3.7 27.1 10.5c2.4 2.2 6 2.6 8.8 0.9 3.9-2.2 8-3.4 12.2-3.4 7.7 0 14.8 3.6 19.6 9.9 1.2 1.6 3 2.7 5 2.9 2 0.3 4-0.2 5.6-1.5 2.9-2.2 6.4-3.4 9.9-3.4 9.1 0 16.5 7.4 16.5 16.5v0.5h-0.5c-13 0-23.5 10.5-23.5 23.5v16c0 4.1 3.4 7.5 7.5 7.5s7.5-3.4 7.5-7.5v-16c0-4.7 3.8-8.5 8.5-8.5h15.9c0.1 0 0.3 0.1 0.4 0.2 0.1 0.1 0.2 0.2 0.2 0.4-0.2 24.2-1.2 45.3-2.9 64.1-1.7 0.2-3.6 0.3-5.7 0.3-7.8 0-11.3-1.5-15.7-3.4-0.2-0.1-0.5-0.2-0.7-0.3v-4.8c0-4.1-3.4-7.5-7.5-7.5s-7.5 3.4-7.5 7.5v9.3c0 0.5 0 0.9 0 1.3v5.4c0 4.7-3.8 8.5-8.5 8.5s-8.5-3.8-8.5-8.5v-64c0-13-10.5-23.5-23.5-23.5-6.3 0-12.2 2.4-16.6 6.9-4.4 4.4-6.9 10.3-6.9 16.6l0 62c0 0.1 0 0.1 0 0.2l0 41.9c0 4.1 3.4 7.5 7.5 7.5 4.1 0 7.5-3.4 7.5-7.5l0-32.8c1.8 0.2 3.8 0.3 5.8 0.3 4.9 0 8.8-0.5 12-1.3 2.7 9.9 11.9 17.3 22.7 17.3 11.3 0 20.8-8 23-18.7 4.1 1.5 9.2 2.7 16.9 2.7 1.4 0 2.8-0.1 4.1-0.1-5.1 45.2-14 77-23.2 110.1zm-55.5-124.9c-2.3 0-4.2-0.1-5.8-0.4l0-56.2c0-2.3 0.9-4.4 2.5-6 1.6-1.6 3.7-2.5 6-2.5 4.7 0 8.5 3.8 8.5 8.5v54.9c-2.9 1-6.1 1.6-11.2 1.6z"/><path d="m271.5 416h-80c-4.1 0-7.5 3.4-7.5 7.5s3.4 7.5 7.5 7.5h80c4.1 0 7.5-3.4 7.5-7.5s-3.4-7.5-7.5-7.5z"/></svg>
