<svg xmlns="http://www.w3.org/2000/svg" data-name="Layer 1" viewBox="0 0 512 512" width="512" height="512"><title>  Building</title><path d="M483 211 435 105a8 8 0 0 0-7-4H382V36c0-4-3-8-8-8H138c-4 0-8 4-8 8V100H93a8 8 0 0 0-7 4L29 210c-1 2-1 4-1 6V270c0 4 4 8 8 8H61V476c0 4 3 8 8 8H443c4 0 8-4 8-8V278h25A8 8 0 0 0 484 270V214h0A8 8 0 0 0 483 211ZM146 44H366V169H146ZM98 116H130v61A8 8 0 0 0 138 185H374a8 8 0 0 0 8-8V116h41l41 90H49ZM294 468H218V348h76Zm141 0H310V340c0-4-4-8-8-8H210c-4 0-8 3-8 8V468H77V278H435ZM44 262V222H468v40Z"/><path d="M175 340a8 8 0 0 0-8-8H113a8 8 0 0 0-8 8v54a8 8 0 0 0 8 8h54a8 8 0 0 0 8-8Zm-54 8h38v38H121Z"/><path d="M407 340a8 8 0 0 0-8-8H345a8 8 0 0 0-8 8v54a8 8 0 0 0 8 8h54a8 8 0 0 0 8-8Zm-54 8h38v38H353Z"/><path d="M306 74H294V63A8 8 0 0 0 286 55H196A8 8 0 0 0 188 63V135A24 24 0 0 0 212 159h58c13 0 24-11 24-24h12A18 18 0 0 0 324 117V92A18 18 0 0 0 306 74ZM278 135a8 8 0 0 1-8 8H212A8 8 0 0 1 204 135V71h74Zm30-18A2 2 0 0 1 306 119H294V90h12A2 2 0 0 1 308 92Z"/></svg>
