<svg height="512pt" viewBox="-66 0 512 512" width="512pt" xmlns="http://www.w3.org/2000/svg"><path d="m230 382c-5.519531 0-10 4.480469-10 10s4.480469 10 10 10 10-4.480469 10-10-4.480469-10-10-10zm0 0"/><path d="m310 166h-40.628906c6.320312-14.546875 4.753906-32.128906-4.117188-46h4.746094c27.625 0 50-22.378906 50-50 0-5.523438-4.476562-10-10-10h-41.316406l29.636718-44.453125c2.046876-3.066406 2.234376-7.015625.496094-10.265625-1.742187-3.25-5.128906-5.28125-8.816406-5.28125h-120c-3.6875 0-7.078125 2.03125-8.816406 5.28125-1.742188 3.25-1.550782 7.195312.496094 10.265625l29.636718 44.453125h-41.316406c-5.523438 0-10 4.476562-10 10 0 27.570312 22.429688 49.988281 50 49.988281h4.746094c-8.863282 13.859375-10.4375 31.453125-4.144532 46.011719h-80.601562c-38.597656 0-70-31.402344-70-70v-30h10c5.523438 0 10-4.476562 10-10s-4.476562-10-10-10h-10v-36c0-5.523438-4.476562-10-10-10s-10 4.476562-10 10v36h-10c-5.523438 0-10 4.476562-10 10s4.476562 10 10 10h10v30c0 49.625 40.375 90 90 90h91.113281c3.132813 5.324219 3.378907 6.191406 2.980469 8.5625-.839844 4.96875-5.152344 14.199219-13.351562 30.589844-7.625 15.273437-7.035157 33.199218 1.527343 46.847656h-2.269531c-16.574219 0-30 13.425781-30 30 0 12.820312 8.085938 23.785156 19.425781 28.070312-17.949219 14.683594-29.425781 36.988282-29.425781 61.929688 0 23.878906 10.527344 45.328125 27.167969 60h-7.167969c-27.625 0-50 22.375-50 50 0 5.523438 4.476562 10 10 10h200c5.523438 0 10-4.476562 10-10 0-27.570312-22.429688-50-50-50h-7.167969c16.640625-14.671875 27.167969-36.121094 27.167969-60 0-24.9375-11.472656-47.238281-29.414062-61.921875 8.0625-3.039063 14.71875-9.597656 17.710937-18.078125h11.703125c37.945312 0 70-33.429688 70-73s-32.054688-73-70-73zm-121.3125-146h82.628906l-26.667968 40h-29.296876zm-26.972656 59.988281h136.582031c-4.023437 11.40625-14.996094 20.011719-28.296875 20.011719h-80c-13.035156 0-24.160156-8.367188-28.285156-20.011719zm68.839844 40.011719c17.148437.226562 27.4375 22.367188 20.398437 38.222656-2.902344 6.558594-5.335937 10.832032-8.613281 16.316406-4.25 7.117188-7.925782 13.261719-6.214844 23.285157 1.351562 7.917969 5.898438 17.585937 15.242188 36.269531 6.996093 13.988281-1.085938 37.855469-21.648438 37.855469-21.214844 0-29.511719-20.972657-21.082031-37.855469 9.652343-19.308594 13.894531-28.605469 15.179687-36.199219 1.691406-10.003906-1.96875-16.15625-6.199218-23.28125-2.371094-3.984375-5.320313-8.949219-8.59375-16.386719-7-15.878906 3.273437-37.996093 20.40625-38.226562zm59.445312 352c13.035156 0 24.160156 8.359375 28.285156 20h-176.582031c4.015625-11.382812 14.976563-20 28.296875-20zm-.847656-90h-19.152344c-5.523438 0-10 4.476562-10 10s4.476562 9.988281 10 9.988281h19.152344c-4.777344 28.339844-29.476563 50.011719-59.152344 50.011719s-54.375-21.660156-59.152344-50h19.152344c5.523438 0 10-4.476562 10-10s-4.476562-10-10-10h-19.152344c4.777344-28.339844 29.476563-50 59.152344-50s54.375 21.660156 59.152344 50zm-99.152344-70c-5.515625 0-10-4.484375-10-10 0-5.519531 4.480469-10 10-10h80c5.515625 0 10 4.484375 10 10 0 5.519531-4.480469 10-10 10zm120-20h-11.71875c-4.128906-11.640625-15.246094-20-28.28125-20h-3.957031c9.382812-14.683594 10.074219-33.132812 3.210937-46.851562-8.410156-16.824219-12.5625-25.707032-13.414062-30.6875-.398438-2.34375-.15625-3.210938 2.953125-8.460938h51.207031c26.636719 0 50 24.765625 50 53 0 28.230469-23.363281 53-50 53zm0 0"/></svg>