<svg xmlns="http://www.w3.org/2000/svg" viewBox="0 0 60.3 60.3"><style>.a{fill:#010002;}</style><path d="M27 22.1c0.1 0.1 0.2 0.2 0.3 0.3 0.1 3.2-0.2 8.2-0.3 9.7l8.9-0.1c0-0.2 0.3-2.8 0.4-5.9 0.6 0.5 1.1 1 1.7 1.5 1.9 1.7 4.3 0 3.9-2.3 -0.3-2.1-0.4-4.2-0.9-6.2 -0.7-2.7-4.6-1.9-4.6 0.6 -0.1-0.1-0.1-0.1-0.2-0.2 -0.1-0.1-0.2-0.2-0.3-0.3 -0.7-1.8-2.5-3-4.5-2.8 -0.8 0.1-1.5 0.3-2.1 0.7 -1.9-2.9-3.3-6.1-4.3-9.6 -0.8-2.9-5.2-1.2-4.4 1.7C22 14 24.1 18.3 27 22.1z" class="a"/><path d="M59.6 33.2l-59 0L0 42.6l60.3 0L59.6 33.2zM11.4 39.1c-3.3 0-5.9-0.7-5.9-1.6 0-0.9 2.6-1.6 5.9-1.6 3.3 0 5.9 0.7 5.9 1.6C17.3 38.4 14.7 39.1 11.4 39.1zM27.3 39.1c-3.3 0-5.9-0.7-5.9-1.6 0-0.9 2.6-1.6 5.9-1.6 3.3 0 5.9 0.7 5.9 1.6C33.2 38.4 30.5 39.1 27.3 39.1zM37.8 39.8h-1.1v-5.2h1.1V39.8zM41 39.8h-1.1v-5.2h1.1V39.8zM44.4 39.8h-1.1v-5.2h1.1V39.8zM47.7 39.8h-1.1v-5.2h1.1V39.8zM50.8 39.8h-1.1v-5.2h1.1V39.8zM53.8 39.8H52.7v-5.2h1.1V39.8z" class="a"/><polygon points="0 43.2 0.5 54.7 59.6 54.7 60.3 43.2 " class="a"/><rect x="36.9" y="35.4" width="0.7" height="1.2" class="a"/><rect x="40" y="37.7" width="0.7" height="1.2" class="a"/><rect x="43.4" y="35.1" width="0.7" height="1.2" class="a"/><rect x="46.7" y="36.5" width="0.7" height="1.2" class="a"/><rect x="49.9" y="35.1" width="0.7" height="1.2" class="a"/><rect x="52.8" y="34.9" width="0.7" height="1.2" class="a"/><path d="M28.8 14.3v0c0 0.6 0.5 1 1 1 0.5 0 1-0.4 1-1 0.8 1.6 2.5 2.5 4.3 2.2 1.4-0.2 2.5-1.1 3.1-2.2 0 0.5 0.5 1 1 1 0.6 0 1-0.5 1-1v0c0.4 0 0.7-0.3 0.7-0.7v-2.6c0-0.4-0.3-0.7-0.7-0.7v0c0-0.4-0.2-0.7-0.5-0.9 -0.7-2.2-2.8-3.8-5.2-3.8 -2.4 0-4.5 1.6-5.2 3.8 -0.3 0.2-0.5 0.5-0.5 0.9v0c-0.4 0-0.7 0.3-0.7 0.7v2.6C28.1 14 28.4 14.3 28.8 14.3zM34.5 6.6c1.9 0 3.5 1.2 4.2 2.8 -0.3 0.2-0.4 0.5-0.4 0.8v0.4c-0.8-1.6-2.5-2.5-4.3-2.2 -1.4 0.2-2.5 1.1-3.1 2.2v-0.4c0-0.3-0.2-0.6-0.4-0.8C31 7.8 32.6 6.6 34.5 6.6z" class="a"/></svg>
