<svg xmlns="http://www.w3.org/2000/svg" viewBox="0 0 59.2 59.2"><style>.a{fill:#010002;}</style><path d="M20.8 28.2c0.6-0.5 1.2-1.1 1.9-1.6 0.1 4.5 0.4 9.2 0.4 9.4l9.9 0.1c-0.2-1.7-0.5-9.6-0.4-13.6 0.1-0.1 0.2-0.2 0.4-0.4 3.3-4.2 5.6-9 7.1-14.2 0.9-3.2-3.9-5.1-4.9-1.9 -1.1 3.8-2.7 7.3-4.8 10.6 -0.7-0.4-1.4-0.7-2.3-0.8 -2.2-0.2-4.3 1.1-5 3.1 -0.1 0.1-0.2 0.2-0.3 0.3 -0.1 0.1-0.1 0.1-0.2 0.2 0-2.7-4.3-3.6-5.1-0.6 -0.6 2.2-0.7 4.6-1 6.9C16.1 28.2 18.7 30 20.8 28.2z" class="a"/><path d="M18.3 13.2v0c0 0.6 0.5 1.1 1.1 1.1 0.6 0 1.1-0.5 1.1-1.1 0.7 1.3 1.9 2.3 3.4 2.5 2 0.3 3.9-0.8 4.8-2.5 0 0.6 0.5 1.1 1.1 1.1 0.6 0 1.1-0.5 1.1-1.1v0c0.4 0 0.7-0.3 0.7-0.7V9.6c0-0.4-0.3-0.7-0.7-0.7V8.8c0-0.4-0.2-0.8-0.6-1 -0.8-2.4-3.1-4.2-5.8-4.2 -2.7 0-5 1.8-5.8 4.2 -0.3 0.2-0.6 0.6-0.6 1v0c-0.4 0-0.7 0.3-0.7 0.7v2.9C17.6 12.9 17.9 13.2 18.3 13.2zM24.7 4.7c2.1 0 3.9 1.3 4.6 3.1 -0.3 0.2-0.5 0.5-0.5 0.9v0.4c-0.7-1.3-1.9-2.3-3.4-2.5 -2-0.3-3.9 0.8-4.8 2.5V8.8c0-0.4-0.2-0.7-0.5-0.9C20.8 6 22.6 4.7 24.7 4.7z" class="a"/><rect y="37.7" width="59.2" height="17.9" class="a"/><rect x="4.9" y="34.2" width="13.8" height="2.5" class="a"/><rect x="39.4" y="34.2" width="13.8" height="2.5" class="a"/></svg>
