<svg xmlns="http://www.w3.org/2000/svg" viewBox="0 0 512 512"><path d="M346.7 430.5l-54.8-320c5.5-0.6 10.4-4.5 11.9-10.2 1.8-6.8-1.4-14.8-11.1-17.4 -0.8 3.1 0.1 0.5-17.7 48.3l51.8 302.7c0.9 5.5 6.1 9.1 11.6 8.2C343.9 441.2 347.6 436 346.7 430.5z"/><path d="M241.8 170.4l33.2-89.4c4.1-11.2-1.5-23.6-12.7-27.7 -11.2-4.1-23.6 1.5-27.7 12.7l-26.6 71.6 -67-15.5 50.6 1.5c-6.1-13.4-20.8-21.3-35.9-18.2l-56 11.8c-17.4 3.7-28.5 20.7-24.8 38L107.3 310l-4.4 75.1L49.4 474c-7.1 11.9-3.3 27.3 8.6 34.4 11.9 7.1 27.3 3.3 34.4-8.6l56.7-94.2c2.1-3.5 3.3-7.4 3.5-11.5l5.2-87.8 20.5-4.3 27.6 67.2 1.2 117.9c0.1 13.6 11.2 24.9 25.3 24.8 13.9-0.1 25-11.5 24.8-25.3l-1.3-122.7c0-3.2-0.7-6.3-1.9-9.3l-27.2-66.3 -18.8-89.5 -76.9-34.7 85.5 19.8C227.3 186.4 238 180.6 241.8 170.4z"/><path d="M216.9 62.4c-2.5-8.5-9.3-15.5-18.5-18 -12.7-3.4-25.7 3-31 14.6 1.7-6.7 1.9-14 0.4-21.2 -5.4-25.7-30.6-42.1-56.3-36.7C85.8 6.4 69.3 31.7 74.7 57.3c5.4 25.7 30.6 42.1 56.3 36.7 16.3-3.4 28.8-14.8 34.5-29.2 -2.7 13.5 5.6 27 19.1 30.7 7.7 2.1 15.6 0.5 21.7-3.6 4-10.7 7-18.9 10.9-29.5L216.9 62.4z"/><path d="M454.4 17.1l0 0c-8.3 1.9-64.8 14.7-74.7 17l0 0.1c-2.9 1.3-4.9 4.2-4.9 7.6v56.8c-2.6-0.7-5.4-1-8.4-1 -13.9 0-25.1 8.2-25.1 18.4s11.2 18.4 25.1 18.4c14.9 0 24.6-9.4 24.9-20.6 0-1.3 0.1-11 0.2-50.4l58-13.2v31.3c-2.6-0.7-5.4-1-8.4-1 -13.9 0-25.1 8.2-25.1 18.4 0 10.2 11.2 18.4 25.1 18.4 14.9 0 24.6-9.4 24.9-20.6 0-1.3 0.1-7.1 0.2-72C466.2 18.7 459.9 14.6 454.4 17.1z"/></svg>
