<svg xmlns="http://www.w3.org/2000/svg" viewBox="0 0 211.6 211.6"><path d="M99.8 106.6c0 0 0 0 0 0 -1.9 0-3.4 1.5-3.4 3.4 0 12.1-0.9 24.1-2.6 35.7 -0.3 1.9 1 3.6 2.9 3.9 0.2 0 0.3 0 0.5 0 1.7 0 3.1-1.2 3.4-2.9 1.8-11.9 2.7-24.2 2.7-36.7C103.2 108.1 101.7 106.6 99.8 106.6z"/><path d="M95.7 155.1c-1.8-0.4-3.6 0.8-4 2.7 -3.5 17.4-8.9 33.2-15.9 47H59.6c10.1-11.2 18.3-26.4 24.5-45.3 0.6-1.8-0.4-3.7-2.2-4.3 -1.8-0.6-3.7 0.4-4.3 2.2 -7 21.4-16.6 37.7-28.5 48.3 -1.1 0.9-1.4 2.4-0.9 3.8 0.5 1.3 1.8 2.2 3.2 2.2h26.5c1.3 0 2.4-0.7 3-1.8 7.8-14.8 13.6-31.8 17.5-50.6C98.7 157.3 97.5 155.5 95.7 155.1z"/><path d="M91.4 106.8c-1.9-0.2-3.6 1.1-3.8 3 -1.5 12.6-3.7 24.4-6.5 35.2 -0.5 1.8 0.6 3.7 2.5 4.2 0.3 0.1 0.6 0.1 0.9 0.1 1.5 0 2.9-1 3.3-2.6 2.9-11.1 5.1-23.2 6.6-36.1C94.6 108.7 93.3 107 91.4 106.8z"/><path d="M117.6 145.4c-1.6-11.2-2.5-22.7-2.6-34.4 0-1.9-1.5-3.4-3.4-3.4 0 0 0 0 0 0 -1.9 0-3.4 1.6-3.4 3.4 0.1 12 1 23.8 2.7 35.3 0.2 1.7 1.7 2.9 3.4 2.9 0.2 0 0.3 0 0.5 0C116.6 149 117.9 147.3 117.6 145.4z"/><path d="M162.4 205.7c-12-10.7-21.6-27.1-28.7-48.8 -0.6-1.8-2.5-2.8-4.3-2.2 -1.8 0.6-2.8 2.5-2.2 4.3 6.2 19.2 14.5 34.6 24.6 45.8h-16.2c-7-13.8-12.4-29.7-15.9-47.3 -0.4-1.8-2.2-3-4-2.7 -1.8 0.4-3 2.2-2.7 4 3.8 18.9 9.7 36.1 17.5 50.9 0.6 1.1 1.8 1.8 3 1.8h26.5c1.4 0 2.7-0.9 3.2-2.2C163.8 208.1 163.4 206.6 162.4 205.7z"/><path d="M130.3 145.2c-2.7-10.6-4.9-22.3-6.4-34.7 -0.2-1.9-1.9-3.2-3.8-3 -1.9 0.2-3.2 1.9-3 3.8 1.6 12.7 3.8 24.6 6.6 35.6 0.4 1.5 1.8 2.6 3.3 2.6 0.3 0 0.6 0 0.9-0.1C129.7 148.8 130.8 147 130.3 145.2z"/><path d="M139.9 143.4H71.7c-1.9 0-3.4 1.5-3.4 3.4v10.2c0 1.9 1.5 3.4 3.4 3.4h68.3c1.9 0 3.4-1.5 3.4-3.4v-10.2C143.4 144.9 141.8 143.4 139.9 143.4zM136.5 153.6h-61.4v-3.4h61.4V153.6z"/><path d="M122.9 95.6H88.7c-1.9 0-3.4 1.5-3.4 3.4v10.2c0 1.9 1.5 3.4 3.4 3.4h34.1c1.9 0 3.4-1.5 3.4-3.4v-10.2C126.3 97.1 124.8 95.6 122.9 95.6zM119.5 105.8H92.2V102.4h27.3V105.8z"/><path d="M116.1 27.3h-20.5c-1.9 0-3.4 1.5-3.4 3.4v13.7c0 1.9 1.5 3.4 3.4 3.4h20.5c1.9 0 3.4-1.5 3.4-3.4V30.7C119.5 28.8 117.9 27.3 116.1 27.3zM112.6 41H99v-6.8h13.7V41z"/><path d="M170.7 204.8h-10.2c-1.9 0-3.4 1.5-3.4 3.4s1.5 3.4 3.4 3.4h10.2c1.9 0 3.4-1.5 3.4-3.4S172.6 204.8 170.7 204.8z"/><path d="M51.2 204.8H41c-1.9 0-3.4 1.5-3.4 3.4s1.5 3.4 3.4 3.4H51.2c1.9 0 3.4-1.5 3.4-3.4S53.1 204.8 51.2 204.8z"/><path d="M122.9 98.6l-6.8-54.6c-0.2-1.7-1.7-3-3.4-3H99c-1.7 0-3.2 1.3-3.4 3l-6.8 54.6c-0.1 1 0.2 1.9 0.8 2.7 0.6 0.7 1.6 1.2 2.6 1.2h27.3c1 0 1.9-0.4 2.6-1.2C122.7 100.5 123 99.5 122.9 98.6zM96 95.6l6-47.8h7.6l6 47.8H96z"/><path d="M105.8 0c-1.9 0-3.4 1.5-3.4 3.4v23.9c0 1.9 1.5 3.4 3.4 3.4s3.4-1.5 3.4-3.4V3.4C109.2 1.5 107.7 0 105.8 0z"/><path d="M121.5 171.3l-5.8-4.3c-5.8-4.4-14-4.4-19.8 0l-5.8 4.3c-1.5 1.1-1.8 3.3-0.7 4.8 1.1 1.5 3.3 1.8 4.8 0.7l5.8-4.3c3.4-2.6 8.2-2.6 11.6 0l5.8 4.3c0.6 0.5 1.3 0.7 2 0.7 1 0 2.1-0.5 2.7-1.4C123.3 174.6 123 172.5 121.5 171.3z"/></svg>
