<svg xmlns="http://www.w3.org/2000/svg" width="366" height="366" viewBox="0 0 366 366"><path d="M266 167c-17 0-31 7-31 16 0 9 14 16 31 16 17 0 31-7 31-16C296 174 283 167 266 167z"/><path d="M365 247c-2-6-11-12-14-14l-28-17v-33c0-16-26-29-58-29 -12 0-24 2-33 5L66 56c-3-2-6-3-10-3 -6 0-12 3-15 8 -2 3-2 7-1 11 1 3 3 7 9 11l160 92c-1 3-2 5-2 8v42L27 112c-3-2-6-3-10-3 -6 0-12 3-15 8 -2 3-2 7-1 11 1 3 3 7 9 11L207 252v36l1 1c17 13 35 19 55 19 10 0 21-2 31-5l7 4c7 4 12 6 16 6 4 0 6-2 7-4 2-3 2-9-8-16 4-2 6-4 6-4l1-1v-48l17 10c7 4 12 6 16 6 4 0 6-2 7-4C366 251 366 249 365 247zM265 207c-30 0-54-11-54-24 0-13 24-24 54-24 30 0 54 11 54 24C319 196 295 207 265 207z"/></svg>
