<svg xmlns="http://www.w3.org/2000/svg" viewBox="0 0 512 512"><path d="M143 382l-12-12 -70 70c-2 2-3 4-3 6 0 2 1 4 3 6 10 10 10 26 0 36 -10 10-26 10-36 0 -10-10-10-26 0-36 5-5 11-8 18-8l0-17c-11 0-22 4-30 13 -17 17-17 44 0 60 8 8 19 12 30 12 11 0 22-4 30-12 15-15 16-37 5-54L143 382z"/><rect x="165" y="320" transform="matrix(0.7071 -0.7071 0.7071 0.7071 -178.5835 225.9401)" width="36" height="17"/><rect x="251" y="235" transform="matrix(0.7071 -0.7071 0.7071 0.7071 -93.2558 261.2839)" width="36" height="17"/><rect x="310" y="175" transform="matrix(0.7071 -0.7071 0.7071 0.7071 -33.5483 286.0136)" width="36" height="17"/><rect x="396" y="90" transform="matrix(0.7071 -0.7071 0.7071 0.7071 51.7879 321.361)" width="36" height="17"/><rect x="452" y="21" transform="matrix(0.7071 -0.7071 0.7071 0.7071 120.0766 349.6391)" width="60" height="17"/><path d="M509 88L424 3c-3-3-9-3-12 0l-34 34c-3 3-3 9 0 12l85 85c2 2 4 3 6 3 2 0 4-1 6-2l34-34C513 97 513 91 509 88zM469 116l-73-73 22-22 73 73L469 116z"/><path d="M438 135l-61-61c-10-10-27-10-36 0l-36 36c-10 10-10 26 0 36l61 61c5 5 11 7 18 7 7 0 13-3 18-7l36-36C448 162 448 145 438 135zM426 160l-36 36c-3 3-9 3-12 0l-61-61c-3-3-3-9 0-12l36-36c3-3 9-3 12 0l61 61C429 151 429 156 426 160z"/><path d="M364 233l-85-85c-3-3-9-3-12 0l-34 34c-3 3-3 9 0 12l85 85c2 2 4 3 6 3 2 0 4-1 6-2l34-34C368 242 368 236 364 233zM324 261l-73-73 22-22 73 73L324 261z"/><path d="M293 281l-61-61c-10-10-26-10-36 0l-36 36c-5 5-8 11-8 18 0 7 3 13 8 18l61 61c5 5 12 7 18 7 7 0 13-2 18-7l36-36c5-5 8-11 8-18C300 292 297 285 293 281zM281 305l-36 36c-3 3-9 3-12 0l-61-61c-2-2-2-4-2-6 0-2 1-4 2-6 0 0 0 0 0 0l36-36c2-2 4-2 6-2 2 0 4 1 6 2l61 61c2 2 3 4 3 6C283 301 282 303 281 305z"/><path d="M219 378l-85-85c-3-3-9-3-12 0L88 327c-3 3-3 9 0 12l85 85c2 2 4 3 6 3 2 0 4-1 6-2l34-34C223 387 223 381 219 378zM179 406l-73-73 22-22 73 73L179 406z"/><rect x="341" y="111" width="17" height="17"/><rect x="367" y="137" width="17" height="17"/><rect x="205" y="256" width="17" height="17"/></svg>
