<svg xmlns="http://www.w3.org/2000/svg" viewBox="0 0 512 512"><path d="M507.4 347.4c-1.5-1-34.4-24.9-37.5-74.6 6.2-5.4 10.1-15.3 10.1-27.5 0-12.5-4.2-22.6-10.6-27.9v-14.8c0-25.6-10-49.7-28.1-67.9 -16.2-16.2-37.2-25.4-59.8-27.3C367 77.7 287.7 64 213.4 64 132.9 64 46.7 80 43 115.1c0 0.2-0.2 0.3-0.2 0.5L0 373.3C0 421.8 109.9 448 213.4 448s213.4-26.2 213.2-76.4l-40.4-242.3c15.1 2.6 29 9.6 40 20.6 14.1 14.1 21.9 32.8 21.9 52.8v14.7c-6.5 5.3-10.7 15.4-10.7 28 0 10.6 3 19.5 7.9 25.2 -9.5 21.7-30.1 76.3-9.9 103.8 1.3 1.7 3 3 5 3.7l14.7 5.4c1.2 0.4 2.4 0.6 3.6 0.6 1.9 0 3.8-0.5 5.4-1.5l12.5-7.4 16.1 4.1c4.9 1.2 10-1.2 12.2-5.7l6.1-12.7C513.2 356.1 511.7 350.4 507.4 347.4zM213.3 85.3c70.1 0 115.5 11.3 136.2 21.3l-118.2 0c-3.7-6.3-10.3-10.7-18.1-10.7 -11.8 0-21.3 9.6-21.3 21.3 0 11.8 9.6 21.3 21.3 21.3 7.8 0 14.3-4.4 18.1-10.7l118.2 0c-20.7 10-66.1 21.3-136.2 21.3 -98.5 0-149.3-22.4-149.3-32C64 107.8 114.8 85.3 213.3 85.3zM405.3 373.3c0 22.3-73 53.3-192 53.3s-192-31.1-192.1-51.6l38.8-232.6c29.7 19.2 93.1 28.2 153.4 28.2 60.2 0 123.7-9 153.4-28.2L405.3 373.3zM477.5 353.4c-2.7-0.7-5.6-0.3-8 1.1l-12 7 -6.5-2.4c-5.8-11.3-2.6-32.1 3.5-52.3 7.5 22.9 20 38.8 29.3 48.1L477.5 353.4z"/></svg>
