<svg width="19" height="14" viewBox="0 0 19 14" fill="none" xmlns="http://www.w3.org/2000/svg">
    <path d="M18.43 11.4051C18.43 11.7822 18.3164 12.1317 18.1343 12.4393L12.3152 6.36262L18.0712 1.66235C18.2951 1.994 18.43 2.38357 18.43 2.80456V11.4051ZM9.21502 7.46597L17.2243 0.925215C16.8957 0.757283 16.5255 0.654297 16.1263 0.654297H2.30374C1.904 0.654297 1.53377 0.757283 1.20643 0.925215L9.21502 7.46597ZM11.448 7.07026L9.59402 8.58523C9.48558 8.6734 9.35054 8.71743 9.21502 8.71743C9.07942 8.71743 8.94439 8.6734 8.83594 8.58523L6.98159 7.07019L1.08887 13.2246C1.44208 13.4314 1.85602 13.5553 2.3037 13.5553H16.1263C16.5739 13.5553 16.988 13.4314 17.3411 13.2246L11.448 7.07026ZM0.358868 1.66232C0.134993 1.99396 0 2.38354 0 2.80456V11.4051C0 11.7822 0.113115 12.1318 0.295853 12.4394L6.11428 6.36159L0.358868 1.66232Z" fill="#4BABCA"/>
</svg>
