<svg xmlns="http://www.w3.org/2000/svg" width="25" height="25" viewBox="0 0 25 25" fill="none"><style>.a{fill:#6F6F6F;}</style><g clip-path="url(#clip0)"><path d="M21.8 4H19.5V1.7C19.5 1.3 19.2 1 18.8 1H5.3C4 1 3 2 3 3.2V22C3 23.6 4.4 25 6 25H21.8C22.2 25 22.5 24.6 22.5 24.2V4.7C22.5 4.3 22.2 4 21.8 4ZM5.3 2.5H18V4H5.3C4.9 4 4.5 3.6 4.5 3.2 4.5 2.8 4.9 2.5 5.3 2.5ZM21 23.5H6C5.2 23.5 4.5 22.8 4.5 22V5.3C4.8 5.4 5 5.5 5.3 5.5H21V23.5Z" class="a"/><path d="M9.8 7C8.5 7 7.5 8.3 7.5 10 7.5 11.3 8.1 12.4 9 12.8V16.7C9 17.1 9.4 17.5 9.8 17.5 10.2 17.5 10.5 17.1 10.5 16.7V12.8C11.4 12.4 12 11.3 12 10 12 8.3 11 7 9.8 7ZM9.8 11.5C9.5 11.5 9 10.9 9 10 9 9.1 9.5 8.5 9.8 8.5 10.1 8.5 10.5 9.1 10.5 10 10.5 10.9 10.1 11.5 9.8 11.5Z" class="a"/><path d="M14.3 7C13.9 7 13.5 7.3 13.5 7.7V16.7C13.5 17.1 13.9 17.5 14.3 17.5 14.7 17.5 15 17.1 15 16.7V14.5H17.3C17.7 14.5 18 14.1 18 13.7V10.7C18 8.6 16.3 7 14.3 7ZM16.5 13H15V8.6C15.9 8.9 16.5 9.7 16.5 10.7V13Z" class="a"/><path d="M17.3 19H8.3C7.9 19 7.5 19.3 7.5 19.7 7.5 20.1 7.9 20.5 8.3 20.5H17.3C17.7 20.5 18 20.1 18 19.7 18 19.3 17.7 19 17.3 19Z" class="a"/></g><defs><clipPath><rect width="24" height="24" fill="white"/></clipPath></defs></svg>
