<svg viewBox="0 0 16 17"  xmlns="http://www.w3.org/2000/svg">
    <path fill="#4BABCA" d="M15.6413 13.0132L13.1703 10.5419C12.6782 10.0518 11.8631 10.0667 11.3538 10.5761L10.109 11.8207C10.0303 11.7774 9.9489 11.7321 9.86331 11.6841C9.07718 11.2485 8.00124 10.6515 6.86903 9.51845C5.73346 8.38302 5.13589 7.30542 4.69898 6.51879C4.65287 6.43545 4.6087 6.3551 4.56508 6.2788L5.40057 5.44455L5.81133 5.03328C6.32142 4.52305 6.33549 3.70824 5.84447 3.21663L3.37352 0.745126C2.8825 0.2542 2.0671 0.269094 1.55701 0.779326L0.860607 1.47972L0.879637 1.49861C0.646126 1.79657 0.450997 2.14022 0.305787 2.5108C0.171932 2.86355 0.0885941 3.20017 0.0504876 3.53747C-0.275785 6.24235 0.960263 8.7144 4.31474 12.0689C8.95164 16.7055 12.6884 16.3552 12.8496 16.3381C13.2007 16.2962 13.5372 16.2123 13.8791 16.0795C14.2465 15.936 14.5899 15.7411 14.8877 15.5081L14.9029 15.5216L15.6084 14.8308C16.1174 14.3207 16.1321 13.5056 15.6413 13.0132Z" />
</svg>
