<svg width="19" height="19" viewBox="0 0 19 19" fill="none" xmlns="http://www.w3.org/2000/svg">
    <g clip-path="url(#clip0)">
        <path d="M15.0664 16.6885H11.8697V14.6338H7.13029V16.6885H3.93359C3.62599 16.6885 3.37695 16.9244 3.37695 17.2159C3.37695 17.5073 3.62599 17.7432 3.93359 17.7432H15.0664C15.374 17.7432 15.623 17.5073 15.623 17.2159C15.623 16.9244 15.374 16.6885 15.0664 16.6885Z" fill="#4BABCA"/>
        <path d="M0 13.4346C0 14.3069 0.749146 15.0166 1.66992 15.0166H17.293C18.2137 15.0166 19 14.3069 19 13.4346V12.9073H0V13.4346Z" fill="#4BABCA"/>
        <path d="M0 3.9186C0 2.92811 0.749146 2.12223 1.66992 2.12223H17.293C18.2137 2.12223 19 2.92811 19 3.9186V4.5174H0V3.9186Z" fill="#4BABCA"/>
        <path d="M0.380005 4.16321V13.1632M18.81 4.16321V13.1632" stroke="#4BABCA" stroke-width="3"/>
    </g>
    <defs>
        <clipPath id="clip0">
            <rect width="19" height="18" fill="white" transform="translate(0 0.743195)"/>
        </clipPath>
    </defs>
</svg>
