<svg  viewBox="0 -43 512 512" xmlns="http://www.w3.org/2000/svg"><path d="m221.867188 68.265625v-34.132813c9.425781 0 17.066406-7.640624 17.066406-17.066406 0-9.425781-7.640625-17.066406-17.066406-17.066406h-102.402344c-9.425782 0-17.066406 7.640625-17.066406 17.066406 0 9.425782 7.640624 17.066406 17.066406 17.066406v34.132813zm0 0"/><path d="m392.535156 68.265625v-34.132813c9.425782 0 17.066406-7.640624 17.066406-17.066406 0-9.425781-7.640624-17.066406-17.066406-17.066406h-102.402344c-9.425781 0-17.066406 7.640625-17.066406 17.066406 0 9.425782 7.640625 17.066406 17.066406 17.066406v34.132813zm0 0"/><path d="m290.132812 358.398438v34.136718c-9.425781 0-17.066406 7.640625-17.066406 17.066406 0 9.425782 7.640625 17.066407 17.066406 17.066407h102.402344c9.425782 0 17.066406-7.640625 17.066406-17.066407 0-9.425781-7.640624-17.066406-17.066406-17.066406v-34.136718zm0 0"/><path d="m119.464844 358.398438v34.136718c-9.425782 0-17.066406 7.640625-17.066406 17.066406 0 9.425782 7.640624 17.066407 17.066406 17.066407h102.402344c9.425781 0 17.066406-7.640625 17.066406-17.066407 0-9.425781-7.640625-17.066406-17.066406-17.066406v-34.136718zm0 0"/><path d="m34.132812 264.535156h25.601563v-102.402344h-25.601563c0-9.425781-7.640624-17.066406-17.066406-17.066406-9.425781 0-17.066406 7.640625-17.066406 17.066406v102.402344c0 9.425782 7.640625 17.066406 17.066406 17.066406 9.425782 0 17.066406-7.640624 17.066406-17.066406zm0 0"/><path d="m494.933594 145.066406c-9.425782 0-17.066406 7.640625-17.066406 17.066406h-25.601563v102.402344h25.601563c0 9.425782 7.640624 17.066406 17.066406 17.066406 9.425781 0 17.066406-7.640624 17.066406-17.066406v-102.402344c0-9.425781-7.640625-17.066406-17.066406-17.066406zm0 0"/><path d="m435.199219 324.265625v-221.867187c0-9.425782-7.640625-17.066407-17.066407-17.066407h-324.265624c-9.425782 0-17.066407 7.640625-17.066407 17.066407v221.867187c0 9.425781 7.640625 17.066406 17.066407 17.066406h324.265624c9.425782 0 17.066407-7.640625 17.066407-17.066406zm-315.734375-17.066406c0 4.714843-3.820313 8.535156-8.53125 8.535156-4.714844 0-8.535156-3.820313-8.535156-8.535156v-145.066407c0-4.710937 3.820312-8.53125 8.535156-8.53125 4.710937 0 8.53125 3.820313 8.53125 8.53125zm0-179.199219c0 4.710938-3.820313 8.535156-8.53125 8.535156-4.714844 0-8.535156-3.824218-8.535156-8.535156v-8.535156c0-4.710938 3.820312-8.53125 8.535156-8.53125 4.710937 0 8.53125 3.820312 8.53125 8.53125zm0 0"/></svg>